<mxfile host="app.diagrams.net" agent="Mozilla/5.0 (Macintosh; Intel Mac OS X 10_15_7) AppleWebKit/537.36 (KHTML, like Gecko) Chrome/141.0.0.0 Safari/537.36 Edg/141.0.0.0" version="28.2.3">
  <diagram name="第 1 页" id="tTlVcQ1cAwbXniXDSvdo">
    <mxGraphModel dx="1621" dy="627" grid="1" gridSize="10" guides="1" tooltips="1" connect="1" arrows="1" fold="1" page="1" pageScale="1" pageWidth="827" pageHeight="1169" math="0" shadow="0">
      <root>
        <mxCell id="0" />
        <mxCell id="1" parent="0" />
        <mxCell id="aRDLAkGhL6x_BW1nBH4k-20" value="" style="rounded=1;whiteSpace=wrap;html=1;fillColor=#e3c800;strokeColor=#B09500;fontColor=#000000;" vertex="1" parent="1">
          <mxGeometry x="760" y="500" width="120" height="200" as="geometry" />
        </mxCell>
        <mxCell id="rX6SQ9fx1u3YeUK6PX-3-27" value="" style="rounded=1;whiteSpace=wrap;html=1;fillColor=#fff2cc;strokeColor=#d6b656;gradientColor=#ffd966;" parent="1" vertex="1">
          <mxGeometry x="120" y="820" width="480" height="170" as="geometry" />
        </mxCell>
        <mxCell id="rX6SQ9fx1u3YeUK6PX-3-2" value="" style="image;sketch=0;aspect=fixed;html=1;points=[];align=center;fontSize=12;image=img/lib/mscae/Cache_Redis_Product.svg;" parent="1" vertex="1">
          <mxGeometry x="795" y="540" width="50" height="42" as="geometry" />
        </mxCell>
        <mxCell id="rX6SQ9fx1u3YeUK6PX-3-13" style="edgeStyle=orthogonalEdgeStyle;rounded=0;orthogonalLoop=1;jettySize=auto;html=1;entryX=0.5;entryY=0;entryDx=0;entryDy=0;" parent="1" source="rX6SQ9fx1u3YeUK6PX-3-4" target="rX6SQ9fx1u3YeUK6PX-3-7" edge="1">
          <mxGeometry relative="1" as="geometry" />
        </mxCell>
        <mxCell id="rX6SQ9fx1u3YeUK6PX-3-4" value="" style="rounded=1;whiteSpace=wrap;html=1;fillColor=#f5f5f5;strokeColor=#666666;fontColor=#333333;" parent="1" vertex="1">
          <mxGeometry x="140" y="50" width="440" height="130" as="geometry" />
        </mxCell>
        <mxCell id="rX6SQ9fx1u3YeUK6PX-3-1" value="" style="verticalLabelPosition=bottom;html=1;verticalAlign=top;align=center;strokeColor=#6c8ebf;fillColor=#dae8fc;shape=mxgraph.azure.mobile_services;pointerEvents=1;" parent="1" vertex="1">
          <mxGeometry x="239.75" y="70" width="32.5" height="50" as="geometry" />
        </mxCell>
        <mxCell id="rX6SQ9fx1u3YeUK6PX-3-3" value="" style="verticalAlign=top;verticalLabelPosition=bottom;labelPosition=center;align=center;html=1;outlineConnect=0;fillColor=#dae8fc;strokeColor=#6c8ebf;gradientDirection=north;strokeWidth=2;shape=mxgraph.networks.pc;" parent="1" vertex="1">
          <mxGeometry x="410" y="60" width="100" height="70" as="geometry" />
        </mxCell>
        <mxCell id="rX6SQ9fx1u3YeUK6PX-3-5" value="移动端" style="text;html=1;align=center;verticalAlign=middle;whiteSpace=wrap;rounded=0;" parent="1" vertex="1">
          <mxGeometry x="226" y="140" width="60" height="30" as="geometry" />
        </mxCell>
        <mxCell id="rX6SQ9fx1u3YeUK6PX-3-6" value="PC 端" style="text;html=1;align=center;verticalAlign=middle;whiteSpace=wrap;rounded=0;" parent="1" vertex="1">
          <mxGeometry x="430" y="140" width="60" height="30" as="geometry" />
        </mxCell>
        <mxCell id="rX6SQ9fx1u3YeUK6PX-3-20" style="edgeStyle=orthogonalEdgeStyle;rounded=0;orthogonalLoop=1;jettySize=auto;html=1;entryX=0.5;entryY=0;entryDx=0;entryDy=0;" parent="1" source="rX6SQ9fx1u3YeUK6PX-3-7" target="rX6SQ9fx1u3YeUK6PX-3-15" edge="1">
          <mxGeometry relative="1" as="geometry" />
        </mxCell>
        <mxCell id="rX6SQ9fx1u3YeUK6PX-3-7" value="" style="rounded=1;whiteSpace=wrap;html=1;fillColor=#ffe6cc;strokeColor=#d79b00;" parent="1" vertex="1">
          <mxGeometry x="280" y="270" width="160" height="130" as="geometry" />
        </mxCell>
        <mxCell id="rX6SQ9fx1u3YeUK6PX-3-10" value="" style="image;aspect=fixed;html=1;points=[];align=center;fontSize=12;image=img/lib/azure2/web/API_Center.svg;" parent="1" vertex="1">
          <mxGeometry x="326" y="310" width="68" height="68" as="geometry" />
        </mxCell>
        <mxCell id="rX6SQ9fx1u3YeUK6PX-3-11" value="&lt;font color=&quot;#00cc66&quot;&gt;负载均衡&lt;/font&gt;" style="text;html=1;align=center;verticalAlign=middle;whiteSpace=wrap;rounded=0;fontStyle=1" parent="1" vertex="1">
          <mxGeometry x="307" y="270" width="106" height="60" as="geometry" />
        </mxCell>
        <mxCell id="rX6SQ9fx1u3YeUK6PX-3-14" value="&lt;font style=&quot;color: rgb(255, 0, 0);&quot;&gt;1.1 发起请求&lt;/font&gt;" style="text;html=1;align=center;verticalAlign=middle;whiteSpace=wrap;rounded=0;" parent="1" vertex="1">
          <mxGeometry x="260" y="210" width="100" height="30" as="geometry" />
        </mxCell>
        <mxCell id="rX6SQ9fx1u3YeUK6PX-3-15" value="" style="rounded=1;whiteSpace=wrap;html=1;fillColor=#fff2cc;strokeColor=#d6b656;" parent="1" vertex="1">
          <mxGeometry x="115" y="500" width="490" height="200" as="geometry" />
        </mxCell>
        <mxCell id="rX6SQ9fx1u3YeUK6PX-3-8" value="" style="image;aspect=fixed;html=1;points=[];align=center;fontSize=12;image=img/lib/azure2/compute/Azure_Spring_Cloud.svg;" parent="1" vertex="1">
          <mxGeometry x="158" y="550" width="68" height="68" as="geometry" />
        </mxCell>
        <mxCell id="rX6SQ9fx1u3YeUK6PX-3-16" value="" style="image;aspect=fixed;html=1;points=[];align=center;fontSize=12;image=img/lib/azure2/compute/Azure_Spring_Cloud.svg;" parent="1" vertex="1">
          <mxGeometry x="310" y="551" width="68" height="68" as="geometry" />
        </mxCell>
        <mxCell id="rX6SQ9fx1u3YeUK6PX-3-21" value="&lt;font style=&quot;color: rgb(255, 0, 0);&quot;&gt;1.2 转发请求&lt;/font&gt;" style="text;html=1;align=center;verticalAlign=middle;whiteSpace=wrap;rounded=0;" parent="1" vertex="1">
          <mxGeometry x="260" y="430" width="100" height="30" as="geometry" />
        </mxCell>
        <mxCell id="rX6SQ9fx1u3YeUK6PX-3-22" value="&lt;font style=&quot;color: rgb(0, 204, 102); font-size: 18px;&quot;&gt;&lt;b style=&quot;&quot;&gt;Springboot 集群&lt;/b&gt;&lt;/font&gt;" style="text;html=1;align=center;verticalAlign=middle;whiteSpace=wrap;rounded=0;" parent="1" vertex="1">
          <mxGeometry x="286" y="500" width="145" height="30" as="geometry" />
        </mxCell>
        <mxCell id="rX6SQ9fx1u3YeUK6PX-3-23" value="Springboot 实例 1" style="text;html=1;align=center;verticalAlign=middle;whiteSpace=wrap;rounded=0;fontColor=#00CC66;" parent="1" vertex="1">
          <mxGeometry x="162" y="630" width="60" height="30" as="geometry" />
        </mxCell>
        <mxCell id="rX6SQ9fx1u3YeUK6PX-3-24" value="Springboot 实例 2" style="text;html=1;align=center;verticalAlign=middle;whiteSpace=wrap;rounded=0;fontColor=#00CC66;" parent="1" vertex="1">
          <mxGeometry x="314" y="630" width="60" height="30" as="geometry" />
        </mxCell>
        <mxCell id="rX6SQ9fx1u3YeUK6PX-3-25" value="" style="image;aspect=fixed;html=1;points=[];align=center;fontSize=12;image=img/lib/azure2/compute/Azure_Spring_Cloud.svg;" parent="1" vertex="1">
          <mxGeometry x="453" y="552" width="68" height="68" as="geometry" />
        </mxCell>
        <mxCell id="rX6SQ9fx1u3YeUK6PX-3-26" value="更多实例……" style="text;html=1;align=center;verticalAlign=middle;whiteSpace=wrap;rounded=0;fontColor=#00CC66;" parent="1" vertex="1">
          <mxGeometry x="430" y="630" width="110" height="30" as="geometry" />
        </mxCell>
        <mxCell id="rX6SQ9fx1u3YeUK6PX-3-9" value="" style="sketch=0;outlineConnect=0;fillColor=#1ba1e2;strokeColor=#006EAF;dashed=0;verticalLabelPosition=bottom;verticalAlign=top;align=center;html=1;fontSize=12;fontStyle=0;aspect=fixed;pointerEvents=1;shape=mxgraph.aws4.rds_mysql_instance;fontColor=#ffffff;" parent="1" vertex="1">
          <mxGeometry x="153" y="866" width="78" height="78" as="geometry" />
        </mxCell>
        <mxCell id="aRDLAkGhL6x_BW1nBH4k-1" value="" style="sketch=0;outlineConnect=0;fillColor=#1ba1e2;strokeColor=#006EAF;dashed=0;verticalLabelPosition=bottom;verticalAlign=top;align=center;html=1;fontSize=12;fontStyle=0;aspect=fixed;pointerEvents=1;shape=mxgraph.aws4.rds_mysql_instance;fontColor=#ffffff;" vertex="1" parent="1">
          <mxGeometry x="290" y="866" width="78" height="78" as="geometry" />
        </mxCell>
        <mxCell id="aRDLAkGhL6x_BW1nBH4k-2" value="&lt;font style=&quot;font-size: 18px; color: rgb(0, 102, 204);&quot;&gt;&lt;b&gt;MySQL 数据库&lt;/b&gt;&lt;/font&gt;" style="text;html=1;align=center;verticalAlign=middle;whiteSpace=wrap;rounded=0;fontSize=16;" vertex="1" parent="1">
          <mxGeometry x="431" y="870" width="149" height="60" as="geometry" />
        </mxCell>
        <mxCell id="aRDLAkGhL6x_BW1nBH4k-3" value="MySQL(主)" style="text;html=1;align=center;verticalAlign=middle;whiteSpace=wrap;rounded=0;fontColor=#0066CC;" vertex="1" parent="1">
          <mxGeometry x="147" y="950" width="90" height="30" as="geometry" />
        </mxCell>
        <mxCell id="aRDLAkGhL6x_BW1nBH4k-4" value="MySQL(从)" style="text;html=1;align=center;verticalAlign=middle;whiteSpace=wrap;rounded=0;fontColor=#0066CC;" vertex="1" parent="1">
          <mxGeometry x="288" y="950" width="90" height="30" as="geometry" />
        </mxCell>
        <mxCell id="aRDLAkGhL6x_BW1nBH4k-8" value="" style="endArrow=classic;html=1;rounded=0;entryX=0.075;entryY=-0.012;entryDx=0;entryDy=0;entryPerimeter=0;" edge="1" parent="1" target="rX6SQ9fx1u3YeUK6PX-3-27">
          <mxGeometry width="50" height="50" relative="1" as="geometry">
            <mxPoint x="156" y="700" as="sourcePoint" />
            <mxPoint x="369" y="730" as="targetPoint" />
          </mxGeometry>
        </mxCell>
        <mxCell id="aRDLAkGhL6x_BW1nBH4k-9" value="" style="endArrow=classic;html=1;rounded=0;entryX=0.151;entryY=1.015;entryDx=0;entryDy=0;entryPerimeter=0;textShadow=0;textOpacity=60;opacity=60;" edge="1" parent="1" target="rX6SQ9fx1u3YeUK6PX-3-15">
          <mxGeometry width="50" height="50" relative="1" as="geometry">
            <mxPoint x="190" y="820" as="sourcePoint" />
            <mxPoint x="190" y="720" as="targetPoint" />
          </mxGeometry>
        </mxCell>
        <mxCell id="aRDLAkGhL6x_BW1nBH4k-10" value="" style="endArrow=classic;html=1;rounded=0;exitX=0.084;exitY=1.01;exitDx=0;exitDy=0;exitPerimeter=0;entryX=0.075;entryY=-0.012;entryDx=0;entryDy=0;entryPerimeter=0;" edge="1" parent="1">
          <mxGeometry width="50" height="50" relative="1" as="geometry">
            <mxPoint x="343.5" y="704" as="sourcePoint" />
            <mxPoint x="343.5" y="820" as="targetPoint" />
          </mxGeometry>
        </mxCell>
        <mxCell id="aRDLAkGhL6x_BW1nBH4k-11" value="" style="endArrow=classic;html=1;rounded=0;exitX=0.084;exitY=1.01;exitDx=0;exitDy=0;exitPerimeter=0;entryX=0.075;entryY=-0.012;entryDx=0;entryDy=0;entryPerimeter=0;" edge="1" parent="1">
          <mxGeometry width="50" height="50" relative="1" as="geometry">
            <mxPoint x="528" y="704" as="sourcePoint" />
            <mxPoint x="528" y="820" as="targetPoint" />
          </mxGeometry>
        </mxCell>
        <mxCell id="aRDLAkGhL6x_BW1nBH4k-12" value="" style="endArrow=classic;html=1;rounded=0;entryX=0.151;entryY=1.015;entryDx=0;entryDy=0;entryPerimeter=0;" edge="1" parent="1">
          <mxGeometry width="50" height="50" relative="1" as="geometry">
            <mxPoint x="369" y="817" as="sourcePoint" />
            <mxPoint x="368" y="700" as="targetPoint" />
          </mxGeometry>
        </mxCell>
        <mxCell id="aRDLAkGhL6x_BW1nBH4k-13" value="" style="endArrow=classic;html=1;rounded=0;entryX=0.151;entryY=1.015;entryDx=0;entryDy=0;entryPerimeter=0;" edge="1" parent="1">
          <mxGeometry width="50" height="50" relative="1" as="geometry">
            <mxPoint x="561" y="820" as="sourcePoint" />
            <mxPoint x="560" y="703" as="targetPoint" />
          </mxGeometry>
        </mxCell>
        <mxCell id="aRDLAkGhL6x_BW1nBH4k-14" value="3.1 查询要同步的数据" style="text;html=1;align=center;verticalAlign=middle;whiteSpace=wrap;rounded=0;fontColor=#CC99FF;" vertex="1" parent="1">
          <mxGeometry x="20" y="710" width="158" height="30" as="geometry" />
        </mxCell>
        <mxCell id="aRDLAkGhL6x_BW1nBH4k-15" value="3.2 返回数据" style="text;html=1;align=center;verticalAlign=middle;whiteSpace=wrap;rounded=0;fontColor=#CC99FF;" vertex="1" parent="1">
          <mxGeometry x="140" y="790" width="158" height="30" as="geometry" />
        </mxCell>
        <mxCell id="aRDLAkGhL6x_BW1nBH4k-16" value="4.3 缓存未命中查询" style="text;html=1;align=center;verticalAlign=middle;whiteSpace=wrap;rounded=0;fontColor=#CCCC00;" vertex="1" parent="1">
          <mxGeometry x="400" y="720" width="150" height="30" as="geometry" />
        </mxCell>
        <mxCell id="aRDLAkGhL6x_BW1nBH4k-17" value="4.4 返回数据" style="text;html=1;align=center;verticalAlign=middle;whiteSpace=wrap;rounded=0;fontColor=#CCCC00;" vertex="1" parent="1">
          <mxGeometry x="540" y="780" width="110" height="30" as="geometry" />
        </mxCell>
        <mxCell id="aRDLAkGhL6x_BW1nBH4k-18" value="5.1 数据库直连操作" style="text;html=1;align=center;verticalAlign=middle;whiteSpace=wrap;rounded=0;fontColor=#00CC66;" vertex="1" parent="1">
          <mxGeometry x="210" y="710" width="158" height="30" as="geometry" />
        </mxCell>
        <mxCell id="aRDLAkGhL6x_BW1nBH4k-19" value="&amp;nbsp;5.2 返回结果" style="text;html=1;align=center;verticalAlign=middle;whiteSpace=wrap;rounded=0;fontColor=#00CC66;" vertex="1" parent="1">
          <mxGeometry x="347" y="790" width="106" height="30" as="geometry" />
        </mxCell>
        <mxCell id="aRDLAkGhL6x_BW1nBH4k-21" value="Redis 缓存" style="text;html=1;align=center;verticalAlign=middle;whiteSpace=wrap;rounded=0;fontColor=#99004D;fontStyle=1;fontSize=16;" vertex="1" parent="1">
          <mxGeometry x="777.5" y="619" width="85" height="30" as="geometry" />
        </mxCell>
        <mxCell id="aRDLAkGhL6x_BW1nBH4k-22" value="" style="endArrow=classic;html=1;rounded=0;exitX=1.01;exitY=0.2;exitDx=0;exitDy=0;exitPerimeter=0;" edge="1" parent="1" source="rX6SQ9fx1u3YeUK6PX-3-15">
          <mxGeometry width="50" height="50" relative="1" as="geometry">
            <mxPoint x="660" y="510" as="sourcePoint" />
            <mxPoint x="760" y="540" as="targetPoint" />
          </mxGeometry>
        </mxCell>
        <mxCell id="aRDLAkGhL6x_BW1nBH4k-23" value="" style="endArrow=classic;html=1;rounded=0;exitX=1.01;exitY=0.2;exitDx=0;exitDy=0;exitPerimeter=0;entryX=-0.025;entryY=0.905;entryDx=0;entryDy=0;entryPerimeter=0;" edge="1" parent="1" target="aRDLAkGhL6x_BW1nBH4k-20">
          <mxGeometry width="50" height="50" relative="1" as="geometry">
            <mxPoint x="602" y="680" as="sourcePoint" />
            <mxPoint x="760" y="690" as="targetPoint" />
          </mxGeometry>
        </mxCell>
        <mxCell id="aRDLAkGhL6x_BW1nBH4k-24" value="" style="endArrow=classic;html=1;rounded=0;entryX=0.998;entryY=0.555;entryDx=0;entryDy=0;entryPerimeter=0;exitX=-0.025;exitY=0.565;exitDx=0;exitDy=0;exitPerimeter=0;" edge="1" parent="1" source="aRDLAkGhL6x_BW1nBH4k-20" target="rX6SQ9fx1u3YeUK6PX-3-15">
          <mxGeometry width="50" height="50" relative="1" as="geometry">
            <mxPoint x="750" y="611" as="sourcePoint" />
            <mxPoint x="795" y="739" as="targetPoint" />
          </mxGeometry>
        </mxCell>
        <mxCell id="aRDLAkGhL6x_BW1nBH4k-25" value="4.1 查询缓存" style="text;html=1;align=center;verticalAlign=middle;whiteSpace=wrap;rounded=0;fontColor=#CCCC00;" vertex="1" parent="1">
          <mxGeometry x="640" y="510" width="100" height="30" as="geometry" />
        </mxCell>
        <mxCell id="aRDLAkGhL6x_BW1nBH4k-26" value="&amp;nbsp;4.5 更新缓存" style="text;html=1;align=center;verticalAlign=middle;whiteSpace=wrap;rounded=0;fontColor=#CCCC00;" vertex="1" parent="1">
          <mxGeometry x="630" y="649" width="100" height="30" as="geometry" />
        </mxCell>
        <mxCell id="aRDLAkGhL6x_BW1nBH4k-27" value="&amp;nbsp;4.2 返回缓存数据" style="text;html=1;align=center;verticalAlign=middle;whiteSpace=wrap;rounded=0;fontColor=#CCCC00;" vertex="1" parent="1">
          <mxGeometry x="620" y="582" width="130" height="30" as="geometry" />
        </mxCell>
        <mxCell id="aRDLAkGhL6x_BW1nBH4k-28" value="" style="rounded=1;whiteSpace=wrap;html=1;fillColor=#fad9d5;strokeColor=#ae4132;" vertex="1" parent="1">
          <mxGeometry x="-120" y="500" width="120" height="160" as="geometry" />
        </mxCell>
        <mxCell id="aRDLAkGhL6x_BW1nBH4k-29" value="" style="sketch=0;outlineConnect=0;fontColor=#ffffff;fillColor=#6a00ff;strokeColor=#3700CC;dashed=0;verticalLabelPosition=bottom;verticalAlign=top;align=center;html=1;fontSize=12;fontStyle=0;aspect=fixed;pointerEvents=1;shape=mxgraph.aws4.file_system;" vertex="1" parent="1">
          <mxGeometry x="-110" y="517" width="78" height="73" as="geometry" />
        </mxCell>
        <mxCell id="aRDLAkGhL6x_BW1nBH4k-30" value="文件存储" style="text;html=1;align=center;verticalAlign=middle;resizable=0;points=[];autosize=1;strokeColor=none;fillColor=none;fontColor=#6600CC;fontSize=16;fontStyle=1" vertex="1" parent="1">
          <mxGeometry x="-110" y="618" width="90" height="30" as="geometry" />
        </mxCell>
        <mxCell id="aRDLAkGhL6x_BW1nBH4k-31" value="" style="endArrow=classic;html=1;rounded=0;exitX=0.006;exitY=0.105;exitDx=0;exitDy=0;exitPerimeter=0;entryX=1.017;entryY=0.125;entryDx=0;entryDy=0;entryPerimeter=0;" edge="1" parent="1" source="rX6SQ9fx1u3YeUK6PX-3-15" target="aRDLAkGhL6x_BW1nBH4k-28">
          <mxGeometry width="50" height="50" relative="1" as="geometry">
            <mxPoint y="480" as="sourcePoint" />
            <mxPoint x="50" y="430" as="targetPoint" />
          </mxGeometry>
        </mxCell>
        <mxCell id="aRDLAkGhL6x_BW1nBH4k-32" value="" style="endArrow=classic;html=1;rounded=0;" edge="1" parent="1">
          <mxGeometry width="50" height="50" relative="1" as="geometry">
            <mxPoint y="610" as="sourcePoint" />
            <mxPoint x="110" y="610" as="targetPoint" />
          </mxGeometry>
        </mxCell>
        <mxCell id="aRDLAkGhL6x_BW1nBH4k-33" value="2.1 文件操作" style="text;html=1;align=center;verticalAlign=middle;whiteSpace=wrap;rounded=0;fontColor=#FF8000;" vertex="1" parent="1">
          <mxGeometry x="10" y="490" width="100" height="30" as="geometry" />
        </mxCell>
        <mxCell id="aRDLAkGhL6x_BW1nBH4k-34" value="&amp;nbsp;2.2 返回文件" style="text;html=1;align=center;verticalAlign=middle;whiteSpace=wrap;rounded=0;fontColor=#FF8000;" vertex="1" parent="1">
          <mxGeometry y="580" width="100" height="30" as="geometry" />
        </mxCell>
      </root>
    </mxGraphModel>
  </diagram>
</mxfile>
